<svg version="1.1" xmlns="http://www.w3.org/2000/svg" viewBox="0 0 134.85300265988428 88.37472098214289" width="269.70600531976856" height="176.74944196428578">
  <!-- svg-source:excalidraw -->

  <defs>
    <style class="style-fonts">

    </style>

  </defs>
  <g stroke-linecap="round" transform="translate(10.99769781576424 10) rotate(0 56.4580823865968 34.187360491071445)"><path d="M17.09 0 C48 0, 78.92 0, 95.82 0 C107.22 0, 112.92 5.7, 112.92 17.09 C112.92 25.65, 112.92 34.21, 112.92 51.28 C112.92 62.68, 107.22 68.37, 95.82 68.37 C76.13 68.37, 56.43 68.37, 17.09 68.37 C5.7 68.37, 0 62.68, 0 51.28 C0 38.53, 0 25.78, 0 17.09 C0 5.7, 5.7 0, 17.09 0" stroke="none" stroke-width="0" fill="#f08c00"></path><path d="M17.09 0 C36.91 0, 56.73 0, 95.82 0 M17.09 0 C36.89 0, 56.69 0, 95.82 0 M95.82 0 C107.22 0, 112.92 5.7, 112.92 17.09 M95.82 0 C107.22 0, 112.92 5.7, 112.92 17.09 M112.92 17.09 C112.92 29.76, 112.92 42.42, 112.92 51.28 M112.92 17.09 C112.92 24.18, 112.92 31.26, 112.92 51.28 M112.92 51.28 C112.92 62.68, 107.22 68.37, 95.82 68.37 M112.92 51.28 C112.92 62.68, 107.22 68.37, 95.82 68.37 M95.82 68.37 C79.78 68.37, 63.74 68.37, 17.09 68.37 M95.82 68.37 C64.51 68.37, 33.2 68.37, 17.09 68.37 M17.09 68.37 C5.7 68.37, 0 62.68, 0 51.28 M17.09 68.37 C5.7 68.37, 0 62.68, 0 51.28 M0 51.28 C0 43.16, 0 35.04, 0 17.09 M0 51.28 C0 39.87, 0 28.45, 0 17.09 M0 17.09 C0 5.7, 5.7 0, 17.09 0 M0 17.09 C0 5.7, 5.7 0, 17.09 0" stroke="#f08c00" stroke-width="4" fill="none"></path></g><g transform="translate(10 13.030207103665703) rotate(0 57.42650132994214 20.720517221631667)"><text x="57.42650132994214" y="30.450855217183914" font-family="Helvetica, Segoe UI Emoji" font-size="36.03568212457683px" fill="#ffffff" text-anchor="middle" style="white-space: pre;" direction="ltr" dominant-baseline="alphabetic">EXIF</text></g><g stroke-linecap="round" transform="translate(29.920435776139925 22.642343992428835) rotate(0.08951452044653506 31.144750904715522 1.699216589860157)"><path d="M0 0 L62.29 0 L62.29 3.4 L0 3.4" stroke="none" stroke-width="0" fill="#f08c00"></path><path d="M0 0 C22.99 0, 45.98 0, 62.29 0 M0 0 C14.03 0, 28.07 0, 62.29 0 M62.29 0 C62.29 1.21, 62.29 2.43, 62.29 3.4 M62.29 0 C62.29 0.86, 62.29 1.71, 62.29 3.4 M62.29 3.4 C38.65 3.4, 15.02 3.4, 0 3.4 M62.29 3.4 C47.36 3.4, 32.43 3.4, 0 3.4 M0 3.4 C0 2.07, 0 0.74, 0 0 M0 3.4 C0 2.43, 0 1.45, 0 0" stroke="#f08c00" stroke-width="1" fill="none"></path></g><g stroke-linecap="round" transform="translate(29.755172202884296 34.45679036944705) rotate(0.154974141525589 31.04221452253165 1.699216589860157)"><path d="M0 0 L62.08 0 L62.08 3.4 L0 3.4" stroke="none" stroke-width="0" fill="#f08c00"></path><path d="M0 0 C18.98 0, 37.96 0, 62.08 0 M0 0 C19.16 0, 38.31 0, 62.08 0 M62.08 0 C62.08 0.98, 62.08 1.97, 62.08 3.4 M62.08 0 C62.08 1.15, 62.08 2.29, 62.08 3.4 M62.08 3.4 C40.15 3.4, 18.21 3.4, 0 3.4 M62.08 3.4 C41.18 3.4, 20.28 3.4, 0 3.4 M0 3.4 C0 2.49, 0 1.59, 0 0 M0 3.4 C0 2.25, 0 1.09, 0 0" stroke="#f08c00" stroke-width="1" fill="none"></path></g><g transform="translate(10.01895258229149 43.37314314188848) rotate(0 57.41275663195711 16.099999999999994)"><text x="57.41275663195713" y="23.660546874999998" font-family="Helvetica, Segoe UI Emoji" font-size="28px" fill="#ffffff" text-anchor="middle" style="white-space: pre;" direction="ltr" dominant-baseline="alphabetic">stripper</text></g></svg>
